<mxfile host="app.diagrams.net" modified="2024-01-12T16:44:53.035Z" agent="Mozilla/5.0 (Windows NT 10.0; Win64; x64) AppleWebKit/537.36 (KHTML, like Gecko) Chrome/120.0.0.0 Safari/537.36" etag="Ce3zTfKC4Cfk8k-JNDNW" version="22.1.18" type="device">
  <diagram name="Page-1" id="RCDj9cpeH7PwX6smGA7s">
    <mxGraphModel dx="2571" dy="1091" grid="1" gridSize="10" guides="1" tooltips="1" connect="1" arrows="1" fold="1" page="1" pageScale="1" pageWidth="827" pageHeight="1169" math="0" shadow="0">
      <root>
        <mxCell id="0" />
        <mxCell id="1" parent="0" />
        <mxCell id="tX5O4GfeXHAYKqc4pqZM-2" style="edgeStyle=orthogonalEdgeStyle;rounded=0;orthogonalLoop=1;jettySize=auto;html=1;exitX=0.5;exitY=1;exitDx=0;exitDy=0;" edge="1" parent="1">
          <mxGeometry relative="1" as="geometry">
            <mxPoint x="305" y="460" as="sourcePoint" />
            <mxPoint x="305" y="460" as="targetPoint" />
          </mxGeometry>
        </mxCell>
        <mxCell id="tX5O4GfeXHAYKqc4pqZM-4" value="users" style="shape=table;startSize=30;container=1;collapsible=0;childLayout=tableLayout;strokeColor=default;fontSize=16;swimlaneLine=1;" vertex="1" parent="1">
          <mxGeometry x="-730" y="840" width="430" height="230" as="geometry" />
        </mxCell>
        <mxCell id="tX5O4GfeXHAYKqc4pqZM-5" value="" style="shape=tableRow;horizontal=0;startSize=0;swimlaneHead=0;swimlaneBody=0;strokeColor=inherit;top=0;left=0;bottom=0;right=0;collapsible=0;dropTarget=0;fillColor=none;points=[[0,0.5],[1,0.5]];portConstraint=eastwest;fontSize=16;" vertex="1" parent="tX5O4GfeXHAYKqc4pqZM-4">
          <mxGeometry y="30" width="430" height="40" as="geometry" />
        </mxCell>
        <mxCell id="tX5O4GfeXHAYKqc4pqZM-6" value="user_id" style="shape=partialRectangle;html=1;whiteSpace=wrap;connectable=0;strokeColor=inherit;overflow=hidden;fillColor=none;top=0;left=0;bottom=0;right=0;pointerEvents=1;fontSize=16;" vertex="1" parent="tX5O4GfeXHAYKqc4pqZM-5">
          <mxGeometry width="214" height="40" as="geometry">
            <mxRectangle width="214" height="40" as="alternateBounds" />
          </mxGeometry>
        </mxCell>
        <mxCell id="tX5O4GfeXHAYKqc4pqZM-7" value="SERIAL PRIMARY KEY NOT NULL" style="shape=partialRectangle;html=1;whiteSpace=wrap;connectable=0;strokeColor=inherit;overflow=hidden;fillColor=none;top=0;left=0;bottom=0;right=0;pointerEvents=1;fontSize=16;" vertex="1" parent="tX5O4GfeXHAYKqc4pqZM-5">
          <mxGeometry x="214" width="216" height="40" as="geometry">
            <mxRectangle width="216" height="40" as="alternateBounds" />
          </mxGeometry>
        </mxCell>
        <mxCell id="tX5O4GfeXHAYKqc4pqZM-9" value="" style="shape=tableRow;horizontal=0;startSize=0;swimlaneHead=0;swimlaneBody=0;strokeColor=inherit;top=0;left=0;bottom=0;right=0;collapsible=0;dropTarget=0;fillColor=none;points=[[0,0.5],[1,0.5]];portConstraint=eastwest;fontSize=16;" vertex="1" parent="tX5O4GfeXHAYKqc4pqZM-4">
          <mxGeometry y="70" width="430" height="40" as="geometry" />
        </mxCell>
        <mxCell id="tX5O4GfeXHAYKqc4pqZM-10" value="username" style="shape=partialRectangle;html=1;whiteSpace=wrap;connectable=0;strokeColor=inherit;overflow=hidden;fillColor=none;top=0;left=0;bottom=0;right=0;pointerEvents=1;fontSize=16;" vertex="1" parent="tX5O4GfeXHAYKqc4pqZM-9">
          <mxGeometry width="214" height="40" as="geometry">
            <mxRectangle width="214" height="40" as="alternateBounds" />
          </mxGeometry>
        </mxCell>
        <mxCell id="tX5O4GfeXHAYKqc4pqZM-11" value="VARCHAR UNIQUE NOT NULL" style="shape=partialRectangle;html=1;whiteSpace=wrap;connectable=0;strokeColor=inherit;overflow=hidden;fillColor=none;top=0;left=0;bottom=0;right=0;pointerEvents=1;fontSize=16;" vertex="1" parent="tX5O4GfeXHAYKqc4pqZM-9">
          <mxGeometry x="214" width="216" height="40" as="geometry">
            <mxRectangle width="216" height="40" as="alternateBounds" />
          </mxGeometry>
        </mxCell>
        <mxCell id="tX5O4GfeXHAYKqc4pqZM-13" value="" style="shape=tableRow;horizontal=0;startSize=0;swimlaneHead=0;swimlaneBody=0;strokeColor=inherit;top=0;left=0;bottom=0;right=0;collapsible=0;dropTarget=0;fillColor=none;points=[[0,0.5],[1,0.5]];portConstraint=eastwest;fontSize=16;" vertex="1" parent="tX5O4GfeXHAYKqc4pqZM-4">
          <mxGeometry y="110" width="430" height="40" as="geometry" />
        </mxCell>
        <mxCell id="tX5O4GfeXHAYKqc4pqZM-14" value="email" style="shape=partialRectangle;html=1;whiteSpace=wrap;connectable=0;strokeColor=inherit;overflow=hidden;fillColor=none;top=0;left=0;bottom=0;right=0;pointerEvents=1;fontSize=16;" vertex="1" parent="tX5O4GfeXHAYKqc4pqZM-13">
          <mxGeometry width="214" height="40" as="geometry">
            <mxRectangle width="214" height="40" as="alternateBounds" />
          </mxGeometry>
        </mxCell>
        <mxCell id="tX5O4GfeXHAYKqc4pqZM-15" value="VARCHAR UNIQUE NOT NULL" style="shape=partialRectangle;html=1;whiteSpace=wrap;connectable=0;strokeColor=inherit;overflow=hidden;fillColor=none;top=0;left=0;bottom=0;right=0;pointerEvents=1;fontSize=16;" vertex="1" parent="tX5O4GfeXHAYKqc4pqZM-13">
          <mxGeometry x="214" width="216" height="40" as="geometry">
            <mxRectangle width="216" height="40" as="alternateBounds" />
          </mxGeometry>
        </mxCell>
        <mxCell id="tX5O4GfeXHAYKqc4pqZM-20" style="shape=tableRow;horizontal=0;startSize=0;swimlaneHead=0;swimlaneBody=0;strokeColor=inherit;top=0;left=0;bottom=0;right=0;collapsible=0;dropTarget=0;fillColor=none;points=[[0,0.5],[1,0.5]];portConstraint=eastwest;fontSize=16;" vertex="1" parent="tX5O4GfeXHAYKqc4pqZM-4">
          <mxGeometry y="150" width="430" height="40" as="geometry" />
        </mxCell>
        <mxCell id="tX5O4GfeXHAYKqc4pqZM-21" value="password_hash" style="shape=partialRectangle;html=1;whiteSpace=wrap;connectable=0;strokeColor=inherit;overflow=hidden;fillColor=none;top=0;left=0;bottom=0;right=0;pointerEvents=1;fontSize=16;" vertex="1" parent="tX5O4GfeXHAYKqc4pqZM-20">
          <mxGeometry width="214" height="40" as="geometry">
            <mxRectangle width="214" height="40" as="alternateBounds" />
          </mxGeometry>
        </mxCell>
        <mxCell id="tX5O4GfeXHAYKqc4pqZM-22" value="VARCHAR NOT NULL" style="shape=partialRectangle;html=1;whiteSpace=wrap;connectable=0;strokeColor=inherit;overflow=hidden;fillColor=none;top=0;left=0;bottom=0;right=0;pointerEvents=1;fontSize=16;" vertex="1" parent="tX5O4GfeXHAYKqc4pqZM-20">
          <mxGeometry x="214" width="216" height="40" as="geometry">
            <mxRectangle width="216" height="40" as="alternateBounds" />
          </mxGeometry>
        </mxCell>
        <mxCell id="tX5O4GfeXHAYKqc4pqZM-17" style="shape=tableRow;horizontal=0;startSize=0;swimlaneHead=0;swimlaneBody=0;strokeColor=inherit;top=0;left=0;bottom=0;right=0;collapsible=0;dropTarget=0;fillColor=none;points=[[0,0.5],[1,0.5]];portConstraint=eastwest;fontSize=16;" vertex="1" parent="tX5O4GfeXHAYKqc4pqZM-4">
          <mxGeometry y="190" width="430" height="40" as="geometry" />
        </mxCell>
        <mxCell id="tX5O4GfeXHAYKqc4pqZM-18" value="previous_password_hashes" style="shape=partialRectangle;html=1;whiteSpace=wrap;connectable=0;strokeColor=inherit;overflow=hidden;fillColor=none;top=0;left=0;bottom=0;right=0;pointerEvents=1;fontSize=16;" vertex="1" parent="tX5O4GfeXHAYKqc4pqZM-17">
          <mxGeometry width="214" height="40" as="geometry">
            <mxRectangle width="214" height="40" as="alternateBounds" />
          </mxGeometry>
        </mxCell>
        <mxCell id="tX5O4GfeXHAYKqc4pqZM-19" value="JSON" style="shape=partialRectangle;html=1;whiteSpace=wrap;connectable=0;strokeColor=inherit;overflow=hidden;fillColor=none;top=0;left=0;bottom=0;right=0;pointerEvents=1;fontSize=16;" vertex="1" parent="tX5O4GfeXHAYKqc4pqZM-17">
          <mxGeometry x="214" width="216" height="40" as="geometry">
            <mxRectangle width="216" height="40" as="alternateBounds" />
          </mxGeometry>
        </mxCell>
        <mxCell id="tX5O4GfeXHAYKqc4pqZM-23" value="games" style="shape=table;startSize=30;container=1;collapsible=0;childLayout=tableLayout;strokeColor=default;fontSize=16;swimlaneLine=1;" vertex="1" parent="1">
          <mxGeometry x="330" y="800" width="430" height="190" as="geometry" />
        </mxCell>
        <mxCell id="tX5O4GfeXHAYKqc4pqZM-24" value="" style="shape=tableRow;horizontal=0;startSize=0;swimlaneHead=0;swimlaneBody=0;strokeColor=inherit;top=0;left=0;bottom=0;right=0;collapsible=0;dropTarget=0;fillColor=none;points=[[0,0.5],[1,0.5]];portConstraint=eastwest;fontSize=16;" vertex="1" parent="tX5O4GfeXHAYKqc4pqZM-23">
          <mxGeometry y="30" width="430" height="40" as="geometry" />
        </mxCell>
        <mxCell id="tX5O4GfeXHAYKqc4pqZM-25" value="game_id" style="shape=partialRectangle;html=1;whiteSpace=wrap;connectable=0;strokeColor=inherit;overflow=hidden;fillColor=none;top=0;left=0;bottom=0;right=0;pointerEvents=1;fontSize=16;" vertex="1" parent="tX5O4GfeXHAYKqc4pqZM-24">
          <mxGeometry width="214" height="40" as="geometry">
            <mxRectangle width="214" height="40" as="alternateBounds" />
          </mxGeometry>
        </mxCell>
        <mxCell id="tX5O4GfeXHAYKqc4pqZM-26" value="SERIAL PRIMARY KEY NOT NULL" style="shape=partialRectangle;html=1;whiteSpace=wrap;connectable=0;strokeColor=inherit;overflow=hidden;fillColor=none;top=0;left=0;bottom=0;right=0;pointerEvents=1;fontSize=16;" vertex="1" parent="tX5O4GfeXHAYKqc4pqZM-24">
          <mxGeometry x="214" width="216" height="40" as="geometry">
            <mxRectangle width="216" height="40" as="alternateBounds" />
          </mxGeometry>
        </mxCell>
        <mxCell id="tX5O4GfeXHAYKqc4pqZM-27" value="" style="shape=tableRow;horizontal=0;startSize=0;swimlaneHead=0;swimlaneBody=0;strokeColor=inherit;top=0;left=0;bottom=0;right=0;collapsible=0;dropTarget=0;fillColor=none;points=[[0,0.5],[1,0.5]];portConstraint=eastwest;fontSize=16;" vertex="1" parent="tX5O4GfeXHAYKqc4pqZM-23">
          <mxGeometry y="70" width="430" height="40" as="geometry" />
        </mxCell>
        <mxCell id="tX5O4GfeXHAYKqc4pqZM-28" value="developer" style="shape=partialRectangle;html=1;whiteSpace=wrap;connectable=0;strokeColor=inherit;overflow=hidden;fillColor=none;top=0;left=0;bottom=0;right=0;pointerEvents=1;fontSize=16;" vertex="1" parent="tX5O4GfeXHAYKqc4pqZM-27">
          <mxGeometry width="214" height="40" as="geometry">
            <mxRectangle width="214" height="40" as="alternateBounds" />
          </mxGeometry>
        </mxCell>
        <mxCell id="tX5O4GfeXHAYKqc4pqZM-29" value="VARCHAR NOT NULL" style="shape=partialRectangle;html=1;whiteSpace=wrap;connectable=0;strokeColor=inherit;overflow=hidden;fillColor=none;top=0;left=0;bottom=0;right=0;pointerEvents=1;fontSize=16;" vertex="1" parent="tX5O4GfeXHAYKqc4pqZM-27">
          <mxGeometry x="214" width="216" height="40" as="geometry">
            <mxRectangle width="216" height="40" as="alternateBounds" />
          </mxGeometry>
        </mxCell>
        <mxCell id="tX5O4GfeXHAYKqc4pqZM-30" value="" style="shape=tableRow;horizontal=0;startSize=0;swimlaneHead=0;swimlaneBody=0;strokeColor=inherit;top=0;left=0;bottom=0;right=0;collapsible=0;dropTarget=0;fillColor=none;points=[[0,0.5],[1,0.5]];portConstraint=eastwest;fontSize=16;" vertex="1" parent="tX5O4GfeXHAYKqc4pqZM-23">
          <mxGeometry y="110" width="430" height="40" as="geometry" />
        </mxCell>
        <mxCell id="tX5O4GfeXHAYKqc4pqZM-31" value="publisher" style="shape=partialRectangle;html=1;whiteSpace=wrap;connectable=0;strokeColor=inherit;overflow=hidden;fillColor=none;top=0;left=0;bottom=0;right=0;pointerEvents=1;fontSize=16;" vertex="1" parent="tX5O4GfeXHAYKqc4pqZM-30">
          <mxGeometry width="214" height="40" as="geometry">
            <mxRectangle width="214" height="40" as="alternateBounds" />
          </mxGeometry>
        </mxCell>
        <mxCell id="tX5O4GfeXHAYKqc4pqZM-32" value="VARCHAR NOT NULL" style="shape=partialRectangle;html=1;whiteSpace=wrap;connectable=0;strokeColor=inherit;overflow=hidden;fillColor=none;top=0;left=0;bottom=0;right=0;pointerEvents=1;fontSize=16;" vertex="1" parent="tX5O4GfeXHAYKqc4pqZM-30">
          <mxGeometry x="214" width="216" height="40" as="geometry">
            <mxRectangle width="216" height="40" as="alternateBounds" />
          </mxGeometry>
        </mxCell>
        <mxCell id="tX5O4GfeXHAYKqc4pqZM-33" style="shape=tableRow;horizontal=0;startSize=0;swimlaneHead=0;swimlaneBody=0;strokeColor=inherit;top=0;left=0;bottom=0;right=0;collapsible=0;dropTarget=0;fillColor=none;points=[[0,0.5],[1,0.5]];portConstraint=eastwest;fontSize=16;" vertex="1" parent="tX5O4GfeXHAYKqc4pqZM-23">
          <mxGeometry y="150" width="430" height="40" as="geometry" />
        </mxCell>
        <mxCell id="tX5O4GfeXHAYKqc4pqZM-34" value="release_date" style="shape=partialRectangle;html=1;whiteSpace=wrap;connectable=0;strokeColor=inherit;overflow=hidden;fillColor=none;top=0;left=0;bottom=0;right=0;pointerEvents=1;fontSize=16;" vertex="1" parent="tX5O4GfeXHAYKqc4pqZM-33">
          <mxGeometry width="214" height="40" as="geometry">
            <mxRectangle width="214" height="40" as="alternateBounds" />
          </mxGeometry>
        </mxCell>
        <mxCell id="tX5O4GfeXHAYKqc4pqZM-35" value="DATE" style="shape=partialRectangle;html=1;whiteSpace=wrap;connectable=0;strokeColor=inherit;overflow=hidden;fillColor=none;top=0;left=0;bottom=0;right=0;pointerEvents=1;fontSize=16;" vertex="1" parent="tX5O4GfeXHAYKqc4pqZM-33">
          <mxGeometry x="214" width="216" height="40" as="geometry">
            <mxRectangle width="216" height="40" as="alternateBounds" />
          </mxGeometry>
        </mxCell>
        <mxCell id="tX5O4GfeXHAYKqc4pqZM-39" value="reviews" style="shape=table;startSize=30;container=1;collapsible=0;childLayout=tableLayout;strokeColor=default;fontSize=16;swimlaneLine=1;" vertex="1" parent="1">
          <mxGeometry x="-220" y="640" width="430" height="390" as="geometry" />
        </mxCell>
        <mxCell id="tX5O4GfeXHAYKqc4pqZM-40" value="" style="shape=tableRow;horizontal=0;startSize=0;swimlaneHead=0;swimlaneBody=0;strokeColor=inherit;top=0;left=0;bottom=0;right=0;collapsible=0;dropTarget=0;fillColor=none;points=[[0,0.5],[1,0.5]];portConstraint=eastwest;fontSize=16;" vertex="1" parent="tX5O4GfeXHAYKqc4pqZM-39">
          <mxGeometry y="30" width="430" height="40" as="geometry" />
        </mxCell>
        <mxCell id="tX5O4GfeXHAYKqc4pqZM-41" value="review_id" style="shape=partialRectangle;html=1;whiteSpace=wrap;connectable=0;strokeColor=inherit;overflow=hidden;fillColor=none;top=0;left=0;bottom=0;right=0;pointerEvents=1;fontSize=16;" vertex="1" parent="tX5O4GfeXHAYKqc4pqZM-40">
          <mxGeometry width="214" height="40" as="geometry">
            <mxRectangle width="214" height="40" as="alternateBounds" />
          </mxGeometry>
        </mxCell>
        <mxCell id="tX5O4GfeXHAYKqc4pqZM-42" value="SERIAL PRIMARY KEY NOT NULL" style="shape=partialRectangle;html=1;whiteSpace=wrap;connectable=0;strokeColor=inherit;overflow=hidden;fillColor=none;top=0;left=0;bottom=0;right=0;pointerEvents=1;fontSize=16;" vertex="1" parent="tX5O4GfeXHAYKqc4pqZM-40">
          <mxGeometry x="214" width="216" height="40" as="geometry">
            <mxRectangle width="216" height="40" as="alternateBounds" />
          </mxGeometry>
        </mxCell>
        <mxCell id="tX5O4GfeXHAYKqc4pqZM-43" value="" style="shape=tableRow;horizontal=0;startSize=0;swimlaneHead=0;swimlaneBody=0;strokeColor=inherit;top=0;left=0;bottom=0;right=0;collapsible=0;dropTarget=0;fillColor=none;points=[[0,0.5],[1,0.5]];portConstraint=eastwest;fontSize=16;" vertex="1" parent="tX5O4GfeXHAYKqc4pqZM-39">
          <mxGeometry y="70" width="430" height="40" as="geometry" />
        </mxCell>
        <mxCell id="tX5O4GfeXHAYKqc4pqZM-44" value="recommended" style="shape=partialRectangle;html=1;whiteSpace=wrap;connectable=0;strokeColor=inherit;overflow=hidden;fillColor=none;top=0;left=0;bottom=0;right=0;pointerEvents=1;fontSize=16;" vertex="1" parent="tX5O4GfeXHAYKqc4pqZM-43">
          <mxGeometry width="214" height="40" as="geometry">
            <mxRectangle width="214" height="40" as="alternateBounds" />
          </mxGeometry>
        </mxCell>
        <mxCell id="tX5O4GfeXHAYKqc4pqZM-45" value="BOOLEAN NOT NULL" style="shape=partialRectangle;html=1;whiteSpace=wrap;connectable=0;strokeColor=inherit;overflow=hidden;fillColor=none;top=0;left=0;bottom=0;right=0;pointerEvents=1;fontSize=16;" vertex="1" parent="tX5O4GfeXHAYKqc4pqZM-43">
          <mxGeometry x="214" width="216" height="40" as="geometry">
            <mxRectangle width="216" height="40" as="alternateBounds" />
          </mxGeometry>
        </mxCell>
        <mxCell id="tX5O4GfeXHAYKqc4pqZM-46" value="" style="shape=tableRow;horizontal=0;startSize=0;swimlaneHead=0;swimlaneBody=0;strokeColor=inherit;top=0;left=0;bottom=0;right=0;collapsible=0;dropTarget=0;fillColor=none;points=[[0,0.5],[1,0.5]];portConstraint=eastwest;fontSize=16;" vertex="1" parent="tX5O4GfeXHAYKqc4pqZM-39">
          <mxGeometry y="110" width="430" height="40" as="geometry" />
        </mxCell>
        <mxCell id="tX5O4GfeXHAYKqc4pqZM-47" value="review_date" style="shape=partialRectangle;html=1;whiteSpace=wrap;connectable=0;strokeColor=inherit;overflow=hidden;fillColor=none;top=0;left=0;bottom=0;right=0;pointerEvents=1;fontSize=16;" vertex="1" parent="tX5O4GfeXHAYKqc4pqZM-46">
          <mxGeometry width="214" height="40" as="geometry">
            <mxRectangle width="214" height="40" as="alternateBounds" />
          </mxGeometry>
        </mxCell>
        <mxCell id="tX5O4GfeXHAYKqc4pqZM-48" value="DATE NOT NULL" style="shape=partialRectangle;html=1;whiteSpace=wrap;connectable=0;strokeColor=inherit;overflow=hidden;fillColor=none;top=0;left=0;bottom=0;right=0;pointerEvents=1;fontSize=16;" vertex="1" parent="tX5O4GfeXHAYKqc4pqZM-46">
          <mxGeometry x="214" width="216" height="40" as="geometry">
            <mxRectangle width="216" height="40" as="alternateBounds" />
          </mxGeometry>
        </mxCell>
        <mxCell id="tX5O4GfeXHAYKqc4pqZM-49" style="shape=tableRow;horizontal=0;startSize=0;swimlaneHead=0;swimlaneBody=0;strokeColor=inherit;top=0;left=0;bottom=0;right=0;collapsible=0;dropTarget=0;fillColor=none;points=[[0,0.5],[1,0.5]];portConstraint=eastwest;fontSize=16;" vertex="1" parent="tX5O4GfeXHAYKqc4pqZM-39">
          <mxGeometry y="150" width="430" height="40" as="geometry" />
        </mxCell>
        <mxCell id="tX5O4GfeXHAYKqc4pqZM-50" value="content" style="shape=partialRectangle;html=1;whiteSpace=wrap;connectable=0;strokeColor=inherit;overflow=hidden;fillColor=none;top=0;left=0;bottom=0;right=0;pointerEvents=1;fontSize=16;" vertex="1" parent="tX5O4GfeXHAYKqc4pqZM-49">
          <mxGeometry width="214" height="40" as="geometry">
            <mxRectangle width="214" height="40" as="alternateBounds" />
          </mxGeometry>
        </mxCell>
        <mxCell id="tX5O4GfeXHAYKqc4pqZM-51" value="TEXT" style="shape=partialRectangle;html=1;whiteSpace=wrap;connectable=0;strokeColor=inherit;overflow=hidden;fillColor=none;top=0;left=0;bottom=0;right=0;pointerEvents=1;fontSize=16;" vertex="1" parent="tX5O4GfeXHAYKqc4pqZM-49">
          <mxGeometry x="214" width="216" height="40" as="geometry">
            <mxRectangle width="216" height="40" as="alternateBounds" />
          </mxGeometry>
        </mxCell>
        <mxCell id="tX5O4GfeXHAYKqc4pqZM-52" style="shape=tableRow;horizontal=0;startSize=0;swimlaneHead=0;swimlaneBody=0;strokeColor=inherit;top=0;left=0;bottom=0;right=0;collapsible=0;dropTarget=0;fillColor=none;points=[[0,0.5],[1,0.5]];portConstraint=eastwest;fontSize=16;" vertex="1" parent="tX5O4GfeXHAYKqc4pqZM-39">
          <mxGeometry y="190" width="430" height="40" as="geometry" />
        </mxCell>
        <mxCell id="tX5O4GfeXHAYKqc4pqZM-53" value="game_id" style="shape=partialRectangle;html=1;whiteSpace=wrap;connectable=0;strokeColor=inherit;overflow=hidden;fillColor=none;top=0;left=0;bottom=0;right=0;pointerEvents=1;fontSize=16;" vertex="1" parent="tX5O4GfeXHAYKqc4pqZM-52">
          <mxGeometry width="214" height="40" as="geometry">
            <mxRectangle width="214" height="40" as="alternateBounds" />
          </mxGeometry>
        </mxCell>
        <mxCell id="tX5O4GfeXHAYKqc4pqZM-54" value="INT NOT NULL" style="shape=partialRectangle;html=1;whiteSpace=wrap;connectable=0;strokeColor=inherit;overflow=hidden;fillColor=none;top=0;left=0;bottom=0;right=0;pointerEvents=1;fontSize=16;" vertex="1" parent="tX5O4GfeXHAYKqc4pqZM-52">
          <mxGeometry x="214" width="216" height="40" as="geometry">
            <mxRectangle width="216" height="40" as="alternateBounds" />
          </mxGeometry>
        </mxCell>
        <mxCell id="tX5O4GfeXHAYKqc4pqZM-58" style="shape=tableRow;horizontal=0;startSize=0;swimlaneHead=0;swimlaneBody=0;strokeColor=inherit;top=0;left=0;bottom=0;right=0;collapsible=0;dropTarget=0;fillColor=none;points=[[0,0.5],[1,0.5]];portConstraint=eastwest;fontSize=16;" vertex="1" parent="tX5O4GfeXHAYKqc4pqZM-39">
          <mxGeometry y="230" width="430" height="40" as="geometry" />
        </mxCell>
        <mxCell id="tX5O4GfeXHAYKqc4pqZM-59" value="user_id&lt;span style=&quot;white-space: pre;&quot;&gt;&#x9;&lt;/span&gt;" style="shape=partialRectangle;html=1;whiteSpace=wrap;connectable=0;strokeColor=inherit;overflow=hidden;fillColor=none;top=0;left=0;bottom=0;right=0;pointerEvents=1;fontSize=16;" vertex="1" parent="tX5O4GfeXHAYKqc4pqZM-58">
          <mxGeometry width="214" height="40" as="geometry">
            <mxRectangle width="214" height="40" as="alternateBounds" />
          </mxGeometry>
        </mxCell>
        <mxCell id="tX5O4GfeXHAYKqc4pqZM-60" value="INT NOT NULL" style="shape=partialRectangle;html=1;whiteSpace=wrap;connectable=0;strokeColor=inherit;overflow=hidden;fillColor=none;top=0;left=0;bottom=0;right=0;pointerEvents=1;fontSize=16;" vertex="1" parent="tX5O4GfeXHAYKqc4pqZM-58">
          <mxGeometry x="214" width="216" height="40" as="geometry">
            <mxRectangle width="216" height="40" as="alternateBounds" />
          </mxGeometry>
        </mxCell>
        <mxCell id="tX5O4GfeXHAYKqc4pqZM-55" style="shape=tableRow;horizontal=0;startSize=0;swimlaneHead=0;swimlaneBody=0;strokeColor=inherit;top=0;left=0;bottom=0;right=0;collapsible=0;dropTarget=0;fillColor=none;points=[[0,0.5],[1,0.5]];portConstraint=eastwest;fontSize=16;" vertex="1" parent="tX5O4GfeXHAYKqc4pqZM-39">
          <mxGeometry y="270" width="430" height="40" as="geometry" />
        </mxCell>
        <mxCell id="tX5O4GfeXHAYKqc4pqZM-56" value="FOREIGN KEY (game_id) REFERENCES games (game_id)" style="shape=partialRectangle;html=1;whiteSpace=wrap;connectable=0;strokeColor=inherit;overflow=hidden;fillColor=none;top=0;left=0;bottom=0;right=0;pointerEvents=1;fontSize=16;rowspan=1;colspan=2;" vertex="1" parent="tX5O4GfeXHAYKqc4pqZM-55">
          <mxGeometry width="430" height="40" as="geometry">
            <mxRectangle width="214" height="40" as="alternateBounds" />
          </mxGeometry>
        </mxCell>
        <mxCell id="tX5O4GfeXHAYKqc4pqZM-57" style="shape=partialRectangle;html=1;whiteSpace=wrap;connectable=0;strokeColor=inherit;overflow=hidden;fillColor=none;top=0;left=0;bottom=0;right=0;pointerEvents=1;fontSize=16;" vertex="1" visible="0" parent="tX5O4GfeXHAYKqc4pqZM-55">
          <mxGeometry x="214" width="216" height="40" as="geometry">
            <mxRectangle width="216" height="40" as="alternateBounds" />
          </mxGeometry>
        </mxCell>
        <mxCell id="tX5O4GfeXHAYKqc4pqZM-61" style="shape=tableRow;horizontal=0;startSize=0;swimlaneHead=0;swimlaneBody=0;strokeColor=inherit;top=0;left=0;bottom=0;right=0;collapsible=0;dropTarget=0;fillColor=none;points=[[0,0.5],[1,0.5]];portConstraint=eastwest;fontSize=16;" vertex="1" parent="tX5O4GfeXHAYKqc4pqZM-39">
          <mxGeometry y="310" width="430" height="40" as="geometry" />
        </mxCell>
        <mxCell id="tX5O4GfeXHAYKqc4pqZM-62" value="FOREIGN KEY (user_id) REFERENCES users (user_id)" style="shape=partialRectangle;html=1;whiteSpace=wrap;connectable=0;strokeColor=inherit;overflow=hidden;fillColor=none;top=0;left=0;bottom=0;right=0;pointerEvents=1;fontSize=16;rowspan=1;colspan=2;" vertex="1" parent="tX5O4GfeXHAYKqc4pqZM-61">
          <mxGeometry width="430" height="40" as="geometry">
            <mxRectangle width="214" height="40" as="alternateBounds" />
          </mxGeometry>
        </mxCell>
        <mxCell id="tX5O4GfeXHAYKqc4pqZM-63" style="shape=partialRectangle;html=1;whiteSpace=wrap;connectable=0;strokeColor=inherit;overflow=hidden;fillColor=none;top=0;left=0;bottom=0;right=0;pointerEvents=1;fontSize=16;" vertex="1" visible="0" parent="tX5O4GfeXHAYKqc4pqZM-61">
          <mxGeometry x="214" width="216" height="40" as="geometry">
            <mxRectangle width="216" height="40" as="alternateBounds" />
          </mxGeometry>
        </mxCell>
        <mxCell id="tX5O4GfeXHAYKqc4pqZM-64" style="shape=tableRow;horizontal=0;startSize=0;swimlaneHead=0;swimlaneBody=0;strokeColor=inherit;top=0;left=0;bottom=0;right=0;collapsible=0;dropTarget=0;fillColor=none;points=[[0,0.5],[1,0.5]];portConstraint=eastwest;fontSize=16;" vertex="1" parent="tX5O4GfeXHAYKqc4pqZM-39">
          <mxGeometry y="350" width="430" height="40" as="geometry" />
        </mxCell>
        <mxCell id="tX5O4GfeXHAYKqc4pqZM-65" value="CONSTRAINT unique_review UNIQUE (game_id, user_id)" style="shape=partialRectangle;html=1;whiteSpace=wrap;connectable=0;strokeColor=inherit;overflow=hidden;fillColor=none;top=0;left=0;bottom=0;right=0;pointerEvents=1;fontSize=16;rowspan=1;colspan=2;" vertex="1" parent="tX5O4GfeXHAYKqc4pqZM-64">
          <mxGeometry width="430" height="40" as="geometry">
            <mxRectangle width="214" height="40" as="alternateBounds" />
          </mxGeometry>
        </mxCell>
        <mxCell id="tX5O4GfeXHAYKqc4pqZM-66" style="shape=partialRectangle;html=1;whiteSpace=wrap;connectable=0;strokeColor=inherit;overflow=hidden;fillColor=none;top=0;left=0;bottom=0;right=0;pointerEvents=1;fontSize=16;" vertex="1" visible="0" parent="tX5O4GfeXHAYKqc4pqZM-64">
          <mxGeometry x="214" width="216" height="40" as="geometry">
            <mxRectangle width="216" height="40" as="alternateBounds" />
          </mxGeometry>
        </mxCell>
        <mxCell id="tX5O4GfeXHAYKqc4pqZM-70" value="" style="edgeStyle=entityRelationEdgeStyle;fontSize=12;html=1;endArrow=ERoneToMany;rounded=0;exitX=1;exitY=0.5;exitDx=0;exitDy=0;entryX=0;entryY=0.5;entryDx=0;entryDy=0;" edge="1" parent="1" source="tX5O4GfeXHAYKqc4pqZM-5" target="tX5O4GfeXHAYKqc4pqZM-58">
          <mxGeometry width="100" height="100" relative="1" as="geometry">
            <mxPoint x="-577.8499999999999" y="419.99999999999994" as="sourcePoint" />
            <mxPoint x="-230" y="890" as="targetPoint" />
            <Array as="points">
              <mxPoint x="-350" y="428.68" />
            </Array>
          </mxGeometry>
        </mxCell>
        <mxCell id="tX5O4GfeXHAYKqc4pqZM-71" value="" style="edgeStyle=entityRelationEdgeStyle;fontSize=12;html=1;endArrow=ERoneToMany;rounded=0;entryX=1;entryY=0.5;entryDx=0;entryDy=0;exitX=0;exitY=0.5;exitDx=0;exitDy=0;" edge="1" parent="1" source="tX5O4GfeXHAYKqc4pqZM-24" target="tX5O4GfeXHAYKqc4pqZM-52">
          <mxGeometry width="100" height="100" relative="1" as="geometry">
            <mxPoint x="250" y="930" as="sourcePoint" />
            <mxPoint x="350" y="830" as="targetPoint" />
          </mxGeometry>
        </mxCell>
        <mxCell id="tX5O4GfeXHAYKqc4pqZM-74" value="&lt;font style=&quot;font-size: 64px;&quot;&gt;TEAM_STEAM_DB&lt;/font&gt;" style="shape=parallelogram;perimeter=parallelogramPerimeter;whiteSpace=wrap;html=1;fixedSize=1;" vertex="1" parent="1">
          <mxGeometry x="-330" y="460" width="630" height="150" as="geometry" />
        </mxCell>
      </root>
    </mxGraphModel>
  </diagram>
</mxfile>
